<svg width="30" height="30" viewBox="0 0 30 30" fill="none" xmlns="http://www.w3.org/2000/svg">
<rect width="30" height="30" rx="12" fill="#C7C7CC"/>
<g clip-path="url(#clip0_15_1160)">
<path d="M7.6845 13.9348L7.6841 13.9352C7.16715 14.4521 7.16715 15.288 7.6841 15.805C8.20095 16.3218 9.03669 16.3219 9.55366 15.8053C9.55375 15.8052 9.55384 15.8051 9.55393 15.805L13.5593 11.816V21.5248C13.5593 22.2544 14.1547 22.8498 14.8843 22.8498C15.6139 22.8498 16.2093 22.2544 16.2093 21.5248V11.8187L20.2051 15.8145C20.722 16.3314 21.5675 16.3314 22.0844 15.8145C22.6014 15.2975 22.6014 14.4616 22.0844 13.9447L15.8239 7.68416C15.3071 7.16731 14.4714 7.16721 13.9544 7.68386C13.9543 7.68396 13.9542 7.68406 13.9541 7.68416L7.6845 13.9348Z" fill="white" stroke="white" stroke-width="0.75"/>
</g>
<defs>
<clipPath id="clip0_15_1160">
<rect width="22.8" height="22.8" fill="white" transform="translate(3.6001 3.60001)"/>
</clipPath>
</defs>
</svg>

